<?xml version="1.0" encoding="utf-8"?>
<!-- Generator: Adobe Illustrator 27.4.1, SVG Export Plug-In . SVG Version: 6.00 Build 0)  -->
<svg version="1.1" id="Layer_1" xmlns="http://www.w3.org/2000/svg" xmlns:xlink="http://www.w3.org/1999/xlink" x="0px" y="0px"
	 viewBox="0 0 474.8 91.2" style="enable-background:new 0 0 474.8 91.2;" xml:space="preserve">
<style type="text/css">
	.st0{fill:#0A8FF2;}
	.st1{fill:#231F20;}
</style>
<g>
	<path id="network_1_" class="st0" d="M45.6,16.5c-1.8,0-3.4-0.7-4.7-1.9c-1.3-1.2-1.9-2.9-1.9-4.7c0-3.5,3.1-6.6,6.6-6.6
		c3.6,0,6.6,3,6.6,6.6c0,1.8-0.7,3.4-1.9,4.7C49,15.8,47.4,16.5,45.6,16.5z M41.6,9.9c0,1.1,0.4,2.1,1.2,2.8
		c0.7,0.7,1.7,1.2,2.8,1.2c2.1,0,4-1.8,4-4c0-2.2-1.8-4-4-4c-1.1,0-2.1,0.4-2.8,1.2C42.1,7.9,41.6,8.9,41.6,9.9z M66.2,75.5
		c-2.6-2.6-2.6-6.8,0-9.3c2.6-2.6,6.8-2.6,9.3,0c2.6,2.6,2.6,6.8,0,9.3l0,0C73,78.1,68.8,78.1,66.2,75.5z M68,73.7
		c1.5,1.5,4.1,1.5,5.6,0c1.5-1.5,1.5-4.1,0-5.6c-1.5-1.5-4.1-1.5-5.6,0C66.5,69.6,66.5,72.1,68,73.7z M15.7,25.1
		c-2.6-2.6-2.6-6.8,0-9.4c2.6-2.6,6.8-2.6,9.3,0c1.2,1.2,1.9,2.9,1.9,4.7c0,1.8-0.7,3.4-1.9,4.7l0,0C22.5,27.6,18.3,27.6,15.7,25.1z
		 M17.6,23.2c1.5,1.5,4.1,1.5,5.6,0c0.8-0.8,1.2-1.7,1.2-2.8c0-1.1-0.4-2.1-1.2-2.8c-1.5-1.5-4.1-1.5-5.6,0
		C16,19.1,16,21.6,17.6,23.2z M81.3,52.2c-1.8,0-3.4-0.7-4.7-1.9c-1.2-1.2-1.9-2.9-1.9-4.7c0-3.5,3.1-6.6,6.6-6.6
		c3.6,0,6.6,3,6.6,6.6c0,1.8-0.7,3.4-1.9,4.7C84.7,51.5,83.1,52.2,81.3,52.2z M77.3,45.6c0,1.1,0.4,2.1,1.2,2.8
		c0.8,0.8,1.7,1.2,2.8,1.2c2.1,0,4-1.8,4-4c0-2.2-1.8-4-4-4c-1.1,0-2.1,0.4-2.8,1.2C77.8,43.6,77.3,44.6,77.3,45.6z M45.6,52.2
		c-3.6,0-6.6-3-6.6-6.6c0-3.5,3.1-6.6,6.6-6.6c1.8,0,3.4,0.7,4.7,1.9c1.2,1.2,1.9,2.9,1.9,4.7c0,1.8-0.7,3.4-1.9,4.7
		C49,51.5,47.4,52.2,45.6,52.2z M41.6,45.6c0,2.2,1.8,4,4,4c2.1,0,4-1.8,4-4c0-1.1-0.4-2.1-1.2-2.8c-0.7-0.7-1.7-1.2-2.8-1.2
		c-1.1,0-2.1,0.4-2.8,1.2C42.1,43.6,41.6,44.6,41.6,45.6z M9.9,52.2c-1.8,0-3.4-0.7-4.7-1.9C4,49,3.3,47.4,3.3,45.6
		c0-3.5,3.1-6.6,6.6-6.6c3.6,0,6.6,3,6.6,6.6c0,1.8-0.7,3.4-1.9,4.7C13.3,51.5,11.7,52.2,9.9,52.2z M6,45.6c0,1.1,0.4,2.1,1.2,2.8
		c0.8,0.8,1.7,1.2,2.8,1.2c2.1,0,4-1.8,4-4c0-2.2-1.8-4-4-4c-1.1,0-2.1,0.4-2.8,1.2C6.4,43.6,6,44.6,6,45.6z M66.2,25.1
		c-1.2-1.2-1.9-2.9-1.9-4.7c0-1.8,0.7-3.4,1.9-4.7c2.6-2.6,6.8-2.6,9.3,0c1.2,1.2,1.9,2.9,1.9,4.7c0,1.8-0.7,3.4-1.9,4.7
		C73,27.6,68.8,27.6,66.2,25.1z M68,23.2c1.5,1.5,4.1,1.5,5.6,0c0.7-0.7,1.2-1.7,1.2-2.8c0-1.1-0.4-2.1-1.2-2.8
		c-1.5-1.5-4.1-1.5-5.6,0C66.5,19.1,66.5,21.6,68,23.2z M15.7,75.5c-2.6-2.6-2.6-6.8,0-9.3c2.6-2.6,6.8-2.6,9.3,0
		c2.6,2.6,2.6,6.8,0,9.3l0,0C22.5,78.1,18.3,78.1,15.7,75.5z M17.6,73.7c1.5,1.5,4.1,1.5,5.6,0c1.5-1.5,1.5-4.1,0-5.6
		c-1.5-1.5-4.1-1.5-5.6,0C16,69.6,16,72.1,17.6,73.7z M45.6,87.9c-1.8,0-3.4-0.7-4.7-1.9c-1.2-1.2-1.9-2.9-1.9-4.7
		c0-3.5,3.1-6.6,6.6-6.6c3.6,0,6.6,3,6.6,6.6c0,1.8-0.7,3.4-1.9,4.7C49,87.2,47.4,87.9,45.6,87.9z M41.6,81.3c0,1.1,0.4,2.1,1.2,2.8
		c0.8,0.8,1.7,1.2,2.8,1.2c2.1,0,4-1.8,4-4c0-2.2-1.8-4-4-4c-1.1,0-2.1,0.4-2.8,1.2C42.1,79.3,41.6,80.3,41.6,81.3z M63.5,41.7
		l5.1-12.3c-0.9-0.2-1.7-0.5-2.4-1l-5.5,13.3H63.5z M49.6,68.3V73c0.3,0.1,0.5,0.3,0.7,0.4l9.9-23.8h-0.6l-2.2,0L49.6,68.3z
		 M38.4,51.3L30,60.1l1.9,1.9l8.4-8.8C39.6,52.6,38.9,52,38.4,51.3z M40.2,38.3L27.8,25.9c-0.3,0.4-0.5,0.7-0.8,1c0,0,0,0,0,0
		c-0.3,0.3-0.7,0.6-1,0.8l12.4,12.4C38.8,39.5,39.4,38.8,40.2,38.3z M63,25.1c-0.5-0.8-0.8-1.6-1-2.4l-23.8,9.8l2,2L63,25.1z
		 M18.9,43.4l13.4-5.5l-2-2l-12.4,5.1C18.3,41.7,18.6,42.5,18.9,43.4z M44.3,54.7l0,17.5c0.4-0.1,0.9-0.1,1.3-0.1
		c0.5,0,0.9,0.1,1.3,0.1l0-17.4c-0.4,0.1-0.9,0.1-1.3,0.1C45.2,54.9,44.7,54.8,44.3,54.7z M25.4,55.5l2,2l7.4-17.8l-3.4,1.4
		L25.4,55.5z M39,29.3l4.3-10.4c-0.9-0.2-1.7-0.6-2.4-1l-5.3,12.9L39,29.3z M52.7,23.6l-2.4-5.8c-0.8,0.5-1.6,0.8-2.4,1l2.4,5.8
		L52.7,23.6z M72.1,45.6c0-0.4,0.1-0.9,0.1-1.3l-17.5,0c0.1,0.4,0.1,0.9,0.1,1.3c0,0.4-0.1,0.9-0.1,1.3h17.4
		C72.1,46.5,72.1,46.1,72.1,45.6z M63,49.6l-1.2,2.9l4.3,10.4c0.8-0.5,1.6-0.8,2.4-1l-5.1-12.3H63z M57.7,41.7l1.2-2.9L55.8,31
		l-2.4,1l4,9.7L57.7,41.7z M40.2,74L17.3,51.1c-0.3,0.4-0.5,0.7-0.8,1c-0.3,0.3-0.7,0.6-1,0.8l22.8,22.8
		C38.8,75.2,39.4,74.5,40.2,74z M76.6,53.5l-3.5,8.4c0.9,0.2,1.7,0.5,2.4,1l3.5-8.4C78.2,54.3,77.4,54,76.6,53.5z M14.6,37.7
		l3.5-8.4c-0.9-0.2-1.7-0.5-2.4-1l-3.5,8.4C13.1,36.9,13.9,37.2,14.6,37.7z M61.9,18.1c0.2-0.9,0.6-1.7,1-2.4l-8.4-3.5
		c-0.2,0.9-0.6,1.7-1,2.4L61.9,18.1z M73.1,29.3l3.5,8.4c0.8-0.5,1.6-0.8,2.4-1.1l-3.5-8.4C74.8,28.8,74,29.1,73.1,29.3z M29.3,73.1
		c-0.2,0.9-0.5,1.7-1,2.4l8.4,3.5c0.1-0.3,0.2-0.5,0.3-0.8l-3.4-3.4L29.3,73.1z M16.3,57.6L13,54.3c-0.3,0.1-0.5,0.2-0.8,0.3
		l3.5,8.4c0.8-0.5,1.6-0.8,2.4-1L16.3,57.6z M37.7,14.6c-0.5-0.8-0.8-1.6-1-2.4l-8.4,3.5c0.5,0.8,0.8,1.6,1,2.4L37.7,14.6z
		 M53.5,76.6c0.4,0.8,0.8,1.6,1,2.4l8.4-3.5c-0.5-0.8-0.8-1.6-1-2.4L53.5,76.6z"/>
	<g>
		<g>
			<path class="st1" d="M99.5,35.3c0-17.5,12.4-29.1,31.1-29.1c9.4,0,17.2,2.9,23,9.1l-8.5,8.7c-2.9-4-8.1-6.6-14.5-6.6
				c-10.3,0-17.1,7.3-17.1,18.1c0,11,7,18.2,17.4,18.2c7.3,0,12-3.2,15.5-8.7l9.1,8.2c-5.8,7.7-14.2,11.7-24.9,11.7
				C112.1,64.9,99.5,53,99.5,35.3z"/>
			<path class="st1" d="M198.1,54.6h-24.2l-3.8,9.5h-14.5l24.1-57.2h12.6l24,57.2h-14.5L198.1,54.6z M193.7,43.4L186,23.8l-7.7,19.6
				H193.7z"/>
			<path class="st1" d="M275.7,64.1l-2-34.7l-15.3,34.7h-7.3l-15.2-34.5l-2,34.5h-13.6l4.1-57.3h15.1l15.3,34.9L270,6.7h15.1l4,57.3
				H275.7z"/>
			<path class="st1" d="M335.7,54.6h-24.2l-3.8,9.5h-14.5l24.1-57.2h12.6l24,57.2h-14.5L335.7,54.6z M331.2,43.4l-7.7-19.6
				l-7.7,19.6H331.2z"/>
			<path class="st1" d="M382.4,44.3h-9.1v19.8h-13.6V6.9h25.5c12.3,0,20.5,7.5,20.5,18.7c0,7.2-3.7,12.8-9.8,16l14.5,22.5h-15.9
				L382.4,44.3z M373.3,33.1h9.2c5.5,0,9.2-3,9.2-7.5s-3.2-7.5-8-7.5h-10.4V33.1z"/>
			<path class="st1" d="M453.3,54.6h-24.2l-3.8,9.5h-14.5l24.1-57.2h12.6l24,57.2H457L453.3,54.6z M448.9,43.4l-7.7-19.6l-7.7,19.6
				H448.9z"/>
		</g>
		<g>
			<path d="M107.3,75.2H104V74h8.1v1.2h-3.3v9.7h-1.4V75.2z"/>
			<path d="M119.6,74v4.6h5.3V74h1.4v10.9h-1.4v-5.1h-5.3v5.1h-1.4V74H119.6z"/>
			<path d="M139.2,79.8H135v3.9h4.7v1.2h-6.1V74h5.9v1.2H135v3.5h4.2V79.8z"/>
			<path d="M156.1,75.2h-3.3V74h8.1v1.2h-3.3v9.7h-1.4V75.2z"/>
			<path d="M172.6,79.8h-4.2v3.9h4.7v1.2H167V74h5.9v1.2h-4.5v3.5h4.2V79.8z"/>
			<path d="M179.8,74h1.4v9.7h4.7v1.2h-6.1V74z"/>
			<path d="M199.3,84.6c-0.5,0.3-1.6,0.5-2.9,0.5c-3.1,0-5.4-1.9-5.4-5.5c0-3.4,2.3-5.7,5.7-5.7c1.4,0,2.2,0.3,2.6,0.5l-0.3,1.2
				c-0.5-0.3-1.3-0.5-2.2-0.5c-2.6,0-4.3,1.6-4.3,4.5c0,2.7,1.5,4.4,4.2,4.4c0.9,0,1.7-0.2,2.3-0.5L199.3,84.6z"/>
			<path d="M215,79.4c0,3.8-2.3,5.8-5.1,5.8c-2.9,0-4.9-2.2-4.9-5.5c0-3.5,2.2-5.7,5.1-5.7C213,73.8,215,76.1,215,79.4z M206.5,79.5
				c0,2.3,1.3,4.4,3.5,4.4c2.2,0,3.5-2.1,3.5-4.5c0-2.2-1.1-4.4-3.5-4.4C207.6,75,206.5,77.1,206.5,79.5z"/>
			<path d="M238.3,84.4c-0.6,0.2-1.9,0.6-3.4,0.6c-1.7,0-3-0.4-4.1-1.4c-0.9-0.9-1.5-2.4-1.5-4.1c0-3.3,2.3-5.6,5.9-5.6
				c1.3,0,2.3,0.3,2.7,0.5l-0.3,1.2c-0.6-0.3-1.3-0.5-2.4-0.5c-2.7,0-4.4,1.7-4.4,4.4c0,2.8,1.7,4.4,4.2,4.4c0.9,0,1.6-0.1,1.9-0.3
				v-3.3h-2.2v-1.1h3.6V84.4z"/>
			<path d="M245.3,74h1.4v9.7h4.7v1.2h-6.1V74z"/>
			<path d="M266.5,79.4c0,3.8-2.3,5.8-5.1,5.8c-2.9,0-4.9-2.2-4.9-5.5c0-3.5,2.2-5.7,5.1-5.7C264.6,73.8,266.5,76.1,266.5,79.4z
				 M258,79.5c0,2.3,1.3,4.4,3.5,4.4c2.2,0,3.5-2.1,3.5-4.5c0-2.2-1.1-4.4-3.5-4.4C259.2,75,258,77.1,258,79.5z"/>
			<path d="M273.2,74.2c0.6-0.1,1.6-0.2,2.6-0.2c1.4,0,2.3,0.2,3,0.8c0.6,0.4,0.9,1.1,0.9,1.9c0,1.1-0.7,2-1.8,2.4v0
				c1,0.3,2.3,1.1,2.3,2.7c0,0.9-0.4,1.7-0.9,2.2c-0.8,0.7-2,1-3.8,1c-1,0-1.7-0.1-2.2-0.1V74.2z M274.6,78.6h1.3
				c1.5,0,2.4-0.8,2.4-1.8c0-1.3-1-1.8-2.4-1.8c-0.6,0-1,0-1.2,0.1V78.6z M274.6,83.9c0.3,0,0.7,0.1,1.2,0.1c1.5,0,2.8-0.5,2.8-2.1
				c0-1.5-1.3-2.1-2.8-2.1h-1.2V83.9z"/>
			<path d="M288.6,81.5l-1.1,3.4H286l3.7-10.9h1.7l3.7,10.9h-1.5l-1.2-3.4H288.6z M292.2,80.4l-1.1-3.1c-0.2-0.7-0.4-1.4-0.6-2h0
				c-0.2,0.6-0.3,1.3-0.6,2l-1.1,3.2H292.2z"/>
			<path d="M301.6,74h1.4v9.7h4.7v1.2h-6.1V74z"/>
			<path d="M324.2,81.5l-1.1,3.4h-1.5l3.7-10.9h1.7l3.7,10.9h-1.5l-1.2-3.4H324.2z M327.8,80.4l-1.1-3.1c-0.2-0.7-0.4-1.4-0.6-2h0
				c-0.2,0.6-0.3,1.3-0.6,2l-1.1,3.2H327.8z"/>
			<path d="M337.2,74.1c0.7-0.1,1.6-0.2,2.7-0.2c1.4,0,2.4,0.3,3.1,0.9c0.6,0.5,1,1.3,1,2.3c0,1-0.3,1.8-0.8,2.3
				c-0.7,0.8-2,1.2-3.3,1.2c-0.4,0-0.8,0-1.1-0.1v4.4h-1.4V74.1z M338.6,79.4c0.3,0.1,0.7,0.1,1.2,0.1c1.7,0,2.7-0.8,2.7-2.3
				c0-1.4-1-2.1-2.6-2.1c-0.6,0-1.1,0-1.3,0.1V79.4z"/>
			<path d="M352.1,74v10.9h-1.4V74H352.1z"/>
			<path d="M369.5,81.5l-1.1,3.4h-1.5l3.7-10.9h1.7l3.7,10.9h-1.5l-1.2-3.4H369.5z M373.1,80.4l-1.1-3.1c-0.2-0.7-0.4-1.4-0.6-2h0
				c-0.2,0.6-0.3,1.3-0.6,2l-1.1,3.2H373.1z"/>
			<path d="M382.5,74h1.4v9.7h4.7v1.2h-6.1V74z"/>
			<path d="M395,74h1.4v9.7h4.7v1.2H395V74z"/>
			<path d="M409,74v10.9h-1.4V74H409z"/>
			<path d="M418,81.5l-1.1,3.4h-1.5l3.7-10.9h1.7l3.7,10.9h-1.5l-1.2-3.4H418z M421.6,80.4l-1.1-3.1c-0.2-0.7-0.4-1.4-0.6-2h0
				c-0.2,0.6-0.3,1.3-0.6,2l-1.1,3.2H421.6z"/>
			<path d="M431.1,84.9V74h1.5l3.5,5.5c0.8,1.3,1.4,2.4,2,3.5l0,0c-0.1-1.5-0.2-2.8-0.2-4.5V74h1.3v10.9h-1.4l-3.5-5.5
				c-0.8-1.2-1.5-2.5-2-3.6l0,0c0.1,1.4,0.1,2.7,0.1,4.5v4.7H431.1z"/>
			<path d="M454.2,84.6c-0.5,0.3-1.6,0.5-2.9,0.5c-3.1,0-5.4-1.9-5.4-5.5c0-3.4,2.3-5.7,5.7-5.7c1.4,0,2.2,0.3,2.6,0.5l-0.3,1.2
				c-0.5-0.3-1.3-0.5-2.2-0.5c-2.6,0-4.3,1.6-4.3,4.5c0,2.7,1.5,4.4,4.2,4.4c0.9,0,1.7-0.2,2.3-0.5L454.2,84.6z"/>
			<path d="M466.5,79.8h-4.2v3.9h4.7v1.2h-6.1V74h5.9v1.2h-4.5v3.5h4.2V79.8z"/>
		</g>
	</g>
</g>
</svg>
